<svg width="246" height="246" viewBox="0 0 246 246" fill="none" xmlns="http://www.w3.org/2000/svg">
<path d="M122.998 20.5H89.1732C69.6982 20.5 54.3232 35.875 54.3232 54.325C54.3232 72.775 69.6982 88.15 88.1482 88.15H122.998V20.5Z" stroke="#FF7A00" stroke-width="8.48276" stroke-miterlimit="10"/>
<path d="M123.004 89.1768H89.1785C70.7285 89.1768 55.3535 104.552 55.3535 123.002C55.3535 141.452 70.7285 156.827 89.1785 156.827H123.004V89.1768Z" stroke="#FF7A00" stroke-width="8.48276" stroke-miterlimit="10"/>
<path d="M123.004 156.823H89.1785C70.7285 156.823 55.3535 172.198 55.3535 190.648C55.3535 209.098 70.7285 224.473 89.1785 224.473C107.629 224.473 123.004 209.098 123.004 190.648V156.823Z" stroke="#FF7A00" stroke-width="8.48276" stroke-miterlimit="10"/>
<path d="M123 20.5H156.825C175.275 20.5 190.65 35.875 190.65 54.325C190.65 72.775 175.275 88.15 156.825 88.15H123V20.5Z" stroke="#FF7A00" stroke-width="8.48276" stroke-miterlimit="10"/>
<path d="M156.825 89.1768C175.275 89.1768 190.65 104.552 190.65 123.002C190.65 141.452 175.275 156.827 156.825 156.827C138.375 156.827 123 141.452 123 123.002C123 104.552 138.375 89.1768 156.825 89.1768Z" stroke="#FF7A00" stroke-width="8.48276" stroke-miterlimit="10"/>
</svg>
