<svg width="287" height="287" viewBox="0 0 287 287" fill="none" xmlns="http://www.w3.org/2000/svg">
<path d="M253.398 96.1503L215.37 58.1229C201.02 43.7729 181.289 44.4907 171.603 59.917L150.437 93.4001L218.24 161.204L251.724 140.038C266.193 130.83 267.03 109.663 253.398 96.1503Z" stroke="#1F1F1F" stroke-width="9.89655" stroke-linecap="round" stroke-linejoin="round"/>
<path d="M218.235 161.088L221.105 210.357C223.856 237.861 214.289 247.427 188.22 250.536L83.943 262.854C61.9397 265.365 46.1547 249.581 48.7855 227.697L60.5046 128.682" stroke="#1F1F1F" stroke-width="9.89655" stroke-linecap="round" stroke-linejoin="round"/>
<path d="M150.437 93.3973L129.51 92.082" stroke="#1F1F1F" stroke-width="9.89655" stroke-linecap="round" stroke-linejoin="round"/>
<path d="M63.1318 248.505L101.159 210.357" stroke="#1F1F1F" stroke-width="9.89655" stroke-linecap="round" stroke-linejoin="round"/>
<path d="M131.542 77.7295C131.542 82.6324 130.825 87.5355 129.509 92.0796C128.194 96.863 126.28 101.287 123.769 105.473C120.899 110.256 117.312 114.561 113.126 118.149C103.679 126.52 91.362 131.542 77.7295 131.542C71.6307 131.542 65.8907 130.585 60.5095 128.672C48.312 124.606 38.1473 116.235 31.6898 105.473C26.7869 97.3412 23.917 87.7745 23.917 77.7295C23.917 60.7487 31.6899 45.5615 44.1266 35.7556C53.3345 28.3415 65.0537 23.917 77.7295 23.917C107.506 23.917 131.542 47.9532 131.542 77.7295Z" stroke="#1F1F1F" stroke-width="9.89655" stroke-miterlimit="10" stroke-linecap="round" stroke-linejoin="round"/>
<path d="M92.0711 91.8378L63.6104 63.377" stroke="#1F1F1F" stroke-width="9.89655" stroke-miterlimit="10" stroke-linecap="round" stroke-linejoin="round"/>
<path d="M91.8377 63.6221L63.377 92.083" stroke="#1F1F1F" stroke-width="9.89655" stroke-miterlimit="10" stroke-linecap="round" stroke-linejoin="round"/>
</svg>
