<svg width="281" height="281" viewBox="0 0 281 281" fill="none" xmlns="http://www.w3.org/2000/svg">
<path d="M58.5449 93.667C77.9439 93.667 93.6699 77.941 93.6699 58.542C93.6699 39.143 77.9439 23.417 58.5449 23.417C39.1459 23.417 23.4199 39.143 23.4199 58.542C23.4199 77.941 39.1459 93.667 58.5449 93.667Z" stroke="#1F1F1F" stroke-width="9.68965" stroke-linecap="round" stroke-linejoin="round"/>
<path d="M222.455 175.625C241.854 175.625 257.58 159.899 257.58 140.5C257.58 121.101 241.854 105.375 222.455 105.375C203.056 105.375 187.33 121.101 187.33 140.5C187.33 159.899 203.056 175.625 222.455 175.625Z" stroke="#1F1F1F" stroke-width="9.68965" stroke-linecap="round" stroke-linejoin="round"/>
<path d="M58.5449 257.583C77.9439 257.583 93.6699 241.857 93.6699 222.458C93.6699 203.059 77.9439 187.333 58.5449 187.333C39.1459 187.333 23.4199 203.059 23.4199 222.458C23.4199 241.857 39.1459 257.583 58.5449 257.583Z" stroke="#1F1F1F" stroke-width="9.68965" stroke-linecap="round" stroke-linejoin="round"/>
<path d="M187.337 140.5H105.378C79.6199 140.5 58.5449 128.792 58.5449 93.667V187.334" stroke="#1F1F1F" stroke-width="9.68965" stroke-linecap="round" stroke-linejoin="round"/>
</svg>
