<svg width="521" height="586" viewBox="0 0 521 586" fill="none" xmlns="http://www.w3.org/2000/svg">
<path d="M311.521 408.392L268.263 288.002C267.771 286.557 266.954 285.514 265.812 284.874C264.833 284.233 263.692 283.914 262.388 283.917C259.454 283.922 257.501 285.291 256.529 288.024L213.74 408.577L185.139 408.632L232.551 276.745C234.819 270.155 238.558 265.248 243.767 262.026C249.139 258.803 255.328 257.185 262.336 257.172C269.18 257.159 275.295 258.753 280.679 261.956C286.063 265.158 289.902 270.05 292.197 276.632L340.121 408.338L311.521 408.392Z" fill="#009B95"/>
<path d="M124.506 287.626C135.743 287.626 146.727 290.911 156.069 297.064C165.412 303.217 172.693 311.963 176.992 322.195C181.292 332.428 182.416 343.687 180.223 354.549C178.03 365.411 172.618 375.388 164.671 383.219C156.725 391.049 146.601 396.381 135.581 398.54C124.56 400.699 113.137 399.588 102.757 395.348C92.3767 391.108 83.5054 383.929 77.2648 374.719C71.0242 365.509 67.6948 354.682 67.6975 343.607C67.7196 328.752 73.7218 314.514 84.3862 304.018C95.0505 293.522 109.505 287.626 124.576 287.626H124.506ZM124.576 221.199C100.01 221.199 75.9963 228.379 55.571 241.832C35.1457 255.284 19.2263 274.405 9.82614 296.775C0.425945 319.145 -2.03288 343.761 2.76064 367.508C7.55415 391.256 19.3847 413.069 36.7561 430.19C54.1276 447.31 76.2596 458.969 100.354 463.691C124.447 468.413 149.421 465.986 172.116 456.719C194.81 447.451 214.207 431.758 227.853 411.624C241.499 391.49 248.781 367.82 248.778 343.607C248.778 327.531 245.566 311.612 239.324 296.76C233.082 281.908 223.933 268.413 212.399 257.047C200.866 245.68 187.174 236.664 172.105 230.513C157.036 224.362 140.886 221.197 124.576 221.199V221.199Z" fill="#FF7A00"/>
<path d="M396.568 287.624C407.804 287.624 418.788 290.909 428.131 297.062C437.473 303.215 444.755 311.961 449.054 322.193C453.353 332.426 454.478 343.685 452.284 354.547C450.091 365.409 444.679 375.386 436.733 383.217C428.787 391.047 418.663 396.379 407.642 398.538C396.622 400.697 385.199 399.586 374.819 395.346C364.439 391.106 355.567 383.927 349.327 374.717C343.086 365.507 339.757 354.68 339.759 343.605C339.781 328.762 345.774 314.534 356.423 304.04C367.073 293.546 381.51 287.642 396.568 287.624V287.624ZM396.568 221.197C372.002 221.195 347.987 228.372 327.56 241.823C307.132 255.274 291.211 274.393 281.809 296.763C272.406 319.134 269.946 343.749 274.737 367.498C279.529 391.247 291.359 413.061 308.73 430.183C326.101 447.305 348.233 458.964 372.327 463.688C396.421 468.411 421.395 465.985 444.091 456.718C466.787 447.45 486.184 431.757 499.831 411.623C513.477 391.489 520.76 367.818 520.757 343.605C520.757 311.14 507.673 280.005 484.383 257.05C461.093 234.094 429.505 221.197 396.568 221.197V221.197Z" fill="#FF7A00"/>
<path fill-rule="evenodd" clip-rule="evenodd" d="M330.195 570.76C309.451 561.076 291.148 546.973 276.606 529.469L324.36 490.928C333.112 501.463 344.129 509.952 356.615 515.781C369.1 521.61 382.743 524.634 396.559 524.634C410.374 524.634 424.017 521.61 436.503 515.781C448.989 509.952 460.005 501.463 468.758 490.928L516.511 529.469C501.97 546.973 483.666 561.076 462.922 570.76C442.178 580.445 419.512 585.468 396.559 585.468C373.606 585.468 350.939 580.445 330.195 570.76Z" fill="#FF7A00"/>
<path d="M258.398 234.21L355.789 160.328V127.769L394.998 98.9671L258.398 0.0390625L121.798 98.9671L147.094 117.751L147.094 175.355L161.007 156.571L176.185 195.391V172.85L258.398 234.21Z" fill="#009B95"/>
</svg>
